<svg width="86" height="40" viewBox="0 0 86 40" fill="none" xmlns="http://www.w3.org/2000/svg">
<path d="M48.1156 18.585C44.368 18.585 42.2266 15.4238 42.2266 11.6252C42.2266 7.82662 44.368 4.66538 48.1156 4.66538C49.8492 4.66538 51.1239 5.35371 51.9652 6.34797V0H55.0245V18.3046H51.9652V16.9024C51.1239 17.8967 49.8492 18.585 48.1156 18.585ZM52.0417 11.2428C52.0417 8.7189 50.614 7.34223 48.7275 7.34223C46.5095 7.34223 45.3113 9.07581 45.3113 11.6252C45.3113 14.1746 46.5095 15.9082 48.7275 15.9082C50.614 15.9082 52.0417 14.506 52.0417 12.0331V11.2428Z" fill="white"/>
<path d="M39.8532 0V18.3046H36.7939V0H39.8532Z" fill="white"/>
<path d="M30.4688 3.13575V0H33.63V3.13575H30.4688ZM33.579 4.92031V18.3046H30.5197V4.92031H33.579Z" fill="white"/>
<path d="M27.2955 4.92041V18.3047H24.2363V16.877C23.4714 17.7693 22.3242 18.5851 20.5906 18.5851C17.7863 18.5851 16.0527 16.6731 16.0527 13.7923V4.92041H19.112V13.1294C19.112 14.761 19.8258 15.8063 21.4829 15.8063C22.8596 15.8063 24.2363 14.7865 24.2363 12.8745V4.92041H27.2955Z" fill="white"/>
<path d="M0 18.3046V0H7.26575C11.1918 0 13.2823 1.70809 13.2823 4.81834C13.2823 7.08729 11.9566 8.26001 10.6819 8.76989C12.594 9.38174 13.8687 10.9624 13.8687 13.2058C13.8687 16.418 11.4977 18.3046 7.72464 18.3046H0ZM3.13574 7.57168H6.95982C9.05032 7.57168 10.1975 6.75587 10.1975 5.14976C10.1975 3.54365 9.05032 2.75334 6.95982 2.75334H3.13574V7.57168ZM3.13574 10.325V15.5513H7.54618C9.61119 15.5513 10.7329 14.4805 10.7329 12.9254C10.7329 11.3958 9.61119 10.325 7.54618 10.325H3.13574Z" fill="white"/>
<path d="M77.9777 39.949C75.4284 39.949 73.4653 38.3939 73.4653 35.9974C73.4653 33.448 75.3774 32.3263 77.9522 31.7909L81.6489 31.0261V30.7967C81.6489 29.522 80.986 28.7317 79.3544 28.7317C77.9013 28.7317 77.1364 29.3945 76.7795 30.6947L73.8987 30.0319C74.5616 27.8139 76.5246 26.0803 79.4819 26.0803C82.6941 26.0803 84.6316 27.61 84.6316 30.6947V36.4563C84.6316 37.2211 84.9631 37.4506 85.8044 37.3486V39.7195C83.5864 39.9745 82.4137 39.5411 81.9548 38.4448C81.1135 39.3881 79.7113 39.949 77.9777 39.949ZM81.6489 35.0032V33.3716L78.7681 33.9834C77.4679 34.2639 76.4991 34.6718 76.4991 35.87C76.4991 36.9152 77.2639 37.5016 78.4366 37.5016C80.0682 37.5016 81.6489 36.6348 81.6489 35.0032Z" fill="white"/>
<path d="M64.3202 39.9999C60.5726 39.9999 58.4312 36.8387 58.4312 33.0401C58.4312 29.2415 60.5726 26.0803 64.3202 26.0803C66.0538 26.0803 67.3285 26.7686 68.1698 27.7629V21.4149H71.2291V39.7195H68.1698V38.3173C67.3285 39.3116 66.0538 39.9999 64.3202 39.9999ZM68.2463 32.6577C68.2463 30.1338 66.8186 28.7571 64.9321 28.7571C62.7141 28.7571 61.5159 30.4907 61.5159 33.0401C61.5159 35.5895 62.7141 37.3231 64.9321 37.3231C66.8186 37.3231 68.2463 35.9209 68.2463 33.448V32.6577Z" fill="white"/>
<path d="M49.2727 39.949C46.7233 39.949 44.7603 38.3939 44.7603 35.9974C44.7603 33.448 46.6723 32.3263 49.2472 31.7909L52.9438 31.0261V30.7967C52.9438 29.522 52.2809 28.7317 50.6493 28.7317C49.1962 28.7317 48.4314 29.3945 48.0745 30.6947L45.1936 30.0319C45.8565 27.8139 47.8195 26.0803 50.7768 26.0803C53.989 26.0803 55.9266 27.61 55.9266 30.6947V36.4563C55.9266 37.2211 56.258 37.4506 57.0993 37.3486V39.7195C54.8813 39.9745 53.7086 39.5411 53.2497 38.4448C52.4084 39.3881 51.0063 39.949 49.2727 39.949ZM52.9438 35.0032V33.3716L50.063 33.9834C48.7628 34.2639 47.794 34.6718 47.794 35.87C47.794 36.9152 48.5588 37.5016 49.7316 37.5016C51.3632 37.5016 52.9438 36.6348 52.9438 35.0032Z" fill="white"/>
<path d="M31.3638 39.7195V26.3353H34.423V27.7629C35.1879 26.8706 36.3861 26.0803 38.1196 26.0803C40.924 26.0803 42.6066 28.0179 42.6066 30.8987V39.7195H39.5473V31.7909C39.5473 30.1338 38.8845 28.9356 37.2019 28.9356C35.8252 28.9356 34.423 29.9554 34.423 31.8674V39.7195H31.3638Z" fill="white"/>
<path d="M21.3635 39.949C18.8141 39.949 16.8511 38.3939 16.8511 35.9974C16.8511 33.448 18.7631 32.3263 21.338 31.7909L25.0346 31.0261V30.7967C25.0346 29.522 24.3718 28.7317 22.7402 28.7317C21.287 28.7317 20.5222 29.3945 20.1653 30.6947L17.2845 30.0319C17.9473 27.8139 19.9103 26.0803 22.8676 26.0803C26.0799 26.0803 28.0174 27.61 28.0174 30.6947V36.4563C28.0174 37.2211 28.3488 37.4506 29.1901 37.3486V39.7195C26.9721 39.9745 25.7994 39.5411 25.3405 38.4448C24.4992 39.3881 23.0971 39.949 21.3635 39.949ZM25.0346 35.0032V33.3716L22.1538 33.9834C20.8536 34.2639 19.8848 34.6718 19.8848 35.87C19.8848 36.9152 20.6497 37.5016 21.8224 37.5016C23.454 37.5016 25.0346 36.6348 25.0346 35.0032Z" fill="white"/>
<path d="M3.26322 30.5672C3.26322 34.5188 5.4047 37.1192 8.41298 37.1192C10.5545 37.1192 12.1096 35.819 12.6705 33.6775L15.7297 34.7227C14.659 37.9605 12.1096 40 8.41298 40C3.54365 40 0 36.1249 0 30.5672C0 25.0096 3.54365 21.1345 8.41298 21.1345C12.1096 21.1345 14.659 23.174 15.7297 26.4118L12.6705 27.457C12.1096 25.3155 10.5545 24.0153 8.41298 24.0153C5.4047 24.0153 3.26322 26.6157 3.26322 30.5672Z" fill="white"/>
</svg>
